<svg width="146" height="59" viewBox="0 0 146 59" fill="none" xmlns="http://www.w3.org/2000/svg">
<path d="M29.8496 42.7187C28.1807 44.9662 26.4113 47.1593 23.717 47.1955C21.0227 47.2499 20.1581 45.7637 17.1019 45.7637C14.0256 45.7637 13.0806 47.1593 10.527 47.2499C7.89306 47.3405 5.9025 44.8574 4.21354 42.6643C0.775294 38.1874 -1.85868 29.9406 1.68009 24.3943C3.42938 21.6393 6.56602 19.8994 9.96405 19.845C12.5377 19.8087 14.9907 21.4218 16.5792 21.4218C18.1475 21.4218 21.1233 19.4825 24.2398 19.7725C25.5467 19.8269 29.2062 20.2437 31.5586 23.3612C31.3777 23.47 27.1955 25.6812 27.2357 30.2668C27.296 35.7406 32.564 37.5712 32.6243 37.5893C32.564 37.7162 31.7798 40.1993 29.8496 42.7187ZM18.3686 13.7187C19.8364 12.2144 22.2693 11.0725 24.28 11C24.5414 13.1206 23.5964 15.2594 22.1889 16.7819C20.8016 18.3225 18.5094 19.5187 16.2574 19.3556C15.9558 17.2712 17.0818 15.0962 18.3686 13.7187Z" fill="black"/>
<path d="M47.6452 15.636C48.5572 15.636 49.3452 15.808 50.0092 16.152C50.6812 16.488 51.1932 16.972 51.5452 17.604C51.9052 18.236 52.0852 18.98 52.0852 19.836C52.0852 20.692 51.9052 21.436 51.5452 22.068C51.1932 22.692 50.6812 23.172 50.0092 23.508C49.3452 23.836 48.5572 24 47.6452 24H45.0412V15.636H47.6452ZM47.6452 23.1C48.7252 23.1 49.5492 22.816 50.1172 22.248C50.6852 21.672 50.9692 20.868 50.9692 19.836C50.9692 18.796 50.6812 17.984 50.1052 17.4C49.5372 16.816 48.7172 16.524 47.6452 16.524H46.1332V23.1H47.6452ZM56.3936 24.108C55.7776 24.108 55.2176 23.968 54.7136 23.688C54.2176 23.408 53.8256 23.012 53.5376 22.5C53.2576 21.98 53.1176 21.38 53.1176 20.7C53.1176 20.028 53.2616 19.436 53.5496 18.924C53.8456 18.404 54.2456 18.008 54.7496 17.736C55.2536 17.456 55.8176 17.316 56.4416 17.316C57.0656 17.316 57.6296 17.456 58.1336 17.736C58.6376 18.008 59.0336 18.4 59.3216 18.912C59.6176 19.424 59.7656 20.02 59.7656 20.7C59.7656 21.38 59.6136 21.98 59.3096 22.5C59.0136 23.012 58.6096 23.408 58.0976 23.688C57.5856 23.968 57.0176 24.108 56.3936 24.108ZM56.3936 23.148C56.7856 23.148 57.1536 23.056 57.4976 22.872C57.8416 22.688 58.1176 22.412 58.3256 22.044C58.5416 21.676 58.6496 21.228 58.6496 20.7C58.6496 20.172 58.5456 19.724 58.3376 19.356C58.1296 18.988 57.8576 18.716 57.5216 18.54C57.1856 18.356 56.8216 18.264 56.4296 18.264C56.0296 18.264 55.6616 18.356 55.3256 18.54C54.9976 18.716 54.7336 18.988 54.5336 19.356C54.3336 19.724 54.2336 20.172 54.2336 20.7C54.2336 21.236 54.3296 21.688 54.5216 22.056C54.7216 22.424 54.9856 22.7 55.3136 22.884C55.6416 23.06 56.0016 23.148 56.3936 23.148ZM69.9613 17.424L67.9093 24H66.7813L65.1973 18.78L63.6133 24H62.4853L60.4213 17.424H61.5373L63.0493 22.944L64.6813 17.424H65.7973L67.3933 22.956L68.8813 17.424H69.9613ZM74.2491 17.304C75.0491 17.304 75.6971 17.548 76.1931 18.036C76.6891 18.516 76.9371 19.212 76.9371 20.124V24H75.8571V20.28C75.8571 19.624 75.6931 19.124 75.3651 18.78C75.0371 18.428 74.5891 18.252 74.0211 18.252C73.4451 18.252 72.9851 18.432 72.6411 18.792C72.3051 19.152 72.1371 19.676 72.1371 20.364V24H71.0451V17.424H72.1371V18.36C72.3531 18.024 72.6451 17.764 73.0131 17.58C73.3891 17.396 73.8011 17.304 74.2491 17.304ZM79.8129 15.12V24H78.7209V15.12H79.8129ZM84.542 24.108C83.926 24.108 83.366 23.968 82.862 23.688C82.366 23.408 81.974 23.012 81.686 22.5C81.406 21.98 81.266 21.38 81.266 20.7C81.266 20.028 81.41 19.436 81.698 18.924C81.994 18.404 82.394 18.008 82.898 17.736C83.402 17.456 83.966 17.316 84.59 17.316C85.214 17.316 85.778 17.456 86.282 17.736C86.786 18.008 87.182 18.4 87.47 18.912C87.766 19.424 87.914 20.02 87.914 20.7C87.914 21.38 87.762 21.98 87.458 22.5C87.162 23.012 86.758 23.408 86.246 23.688C85.734 23.968 85.166 24.108 84.542 24.108ZM84.542 23.148C84.934 23.148 85.302 23.056 85.646 22.872C85.99 22.688 86.266 22.412 86.474 22.044C86.69 21.676 86.798 21.228 86.798 20.7C86.798 20.172 86.694 19.724 86.486 19.356C86.278 18.988 86.006 18.716 85.67 18.54C85.334 18.356 84.97 18.264 84.578 18.264C84.178 18.264 83.81 18.356 83.474 18.54C83.146 18.716 82.882 18.988 82.682 19.356C82.482 19.724 82.382 20.172 82.382 20.7C82.382 21.236 82.478 21.688 82.67 22.056C82.87 22.424 83.134 22.7 83.462 22.884C83.79 23.06 84.15 23.148 84.542 23.148ZM88.9418 20.688C88.9418 20.016 89.0778 19.428 89.3498 18.924C89.6218 18.412 89.9938 18.016 90.4658 17.736C90.9458 17.456 91.4778 17.316 92.0618 17.316C92.6378 17.316 93.1378 17.44 93.5618 17.688C93.9858 17.936 94.3018 18.248 94.5098 18.624V17.424H95.6138V24H94.5098V22.776C94.2938 23.16 93.9698 23.48 93.5378 23.736C93.1138 23.984 92.6178 24.108 92.0498 24.108C91.4658 24.108 90.9378 23.964 90.4658 23.676C89.9938 23.388 89.6218 22.984 89.3498 22.464C89.0778 21.944 88.9418 21.352 88.9418 20.688ZM94.5098 20.7C94.5098 20.204 94.4098 19.772 94.2098 19.404C94.0098 19.036 93.7378 18.756 93.3938 18.564C93.0578 18.364 92.6858 18.264 92.2778 18.264C91.8698 18.264 91.4978 18.36 91.1618 18.552C90.8258 18.744 90.5578 19.024 90.3578 19.392C90.1578 19.76 90.0578 20.192 90.0578 20.688C90.0578 21.192 90.1578 21.632 90.3578 22.008C90.5578 22.376 90.8258 22.66 91.1618 22.86C91.4978 23.052 91.8698 23.148 92.2778 23.148C92.6858 23.148 93.0578 23.052 93.3938 22.86C93.7378 22.66 94.0098 22.376 94.2098 22.008C94.4098 21.632 94.5098 21.196 94.5098 20.7ZM97.0512 20.688C97.0512 20.016 97.1872 19.428 97.4592 18.924C97.7312 18.412 98.1032 18.016 98.5752 17.736C99.0552 17.456 99.5912 17.316 100.183 17.316C100.695 17.316 101.171 17.436 101.611 17.676C102.051 17.908 102.387 18.216 102.619 18.6V15.12H103.723V24H102.619V22.764C102.403 23.156 102.083 23.48 101.659 23.736C101.235 23.984 100.739 24.108 100.171 24.108C99.5872 24.108 99.0552 23.964 98.5752 23.676C98.1032 23.388 97.7312 22.984 97.4592 22.464C97.1872 21.944 97.0512 21.352 97.0512 20.688ZM102.619 20.7C102.619 20.204 102.519 19.772 102.319 19.404C102.119 19.036 101.847 18.756 101.503 18.564C101.167 18.364 100.795 18.264 100.387 18.264C99.9792 18.264 99.6072 18.36 99.2712 18.552C98.9352 18.744 98.6672 19.024 98.4672 19.392C98.2672 19.76 98.1672 20.192 98.1672 20.688C98.1672 21.192 98.2672 21.632 98.4672 22.008C98.6672 22.376 98.9352 22.66 99.2712 22.86C99.6072 23.052 99.9792 23.148 100.387 23.148C100.795 23.148 101.167 23.052 101.503 22.86C101.847 22.66 102.119 22.376 102.319 22.008C102.519 21.632 102.619 21.196 102.619 20.7ZM111.636 24.108C111.02 24.108 110.46 23.968 109.956 23.688C109.46 23.408 109.068 23.012 108.78 22.5C108.5 21.98 108.36 21.38 108.36 20.7C108.36 20.028 108.504 19.436 108.792 18.924C109.088 18.404 109.488 18.008 109.992 17.736C110.496 17.456 111.06 17.316 111.684 17.316C112.308 17.316 112.872 17.456 113.376 17.736C113.88 18.008 114.276 18.4 114.564 18.912C114.86 19.424 115.008 20.02 115.008 20.7C115.008 21.38 114.856 21.98 114.552 22.5C114.256 23.012 113.852 23.408 113.34 23.688C112.828 23.968 112.26 24.108 111.636 24.108ZM111.636 23.148C112.028 23.148 112.396 23.056 112.74 22.872C113.084 22.688 113.36 22.412 113.568 22.044C113.784 21.676 113.892 21.228 113.892 20.7C113.892 20.172 113.788 19.724 113.58 19.356C113.372 18.988 113.1 18.716 112.764 18.54C112.428 18.356 112.064 18.264 111.672 18.264C111.272 18.264 110.904 18.356 110.568 18.54C110.24 18.716 109.976 18.988 109.776 19.356C109.576 19.724 109.476 20.172 109.476 20.7C109.476 21.236 109.572 21.688 109.764 22.056C109.964 22.424 110.228 22.7 110.556 22.884C110.884 23.06 111.244 23.148 111.636 23.148ZM119.648 17.304C120.448 17.304 121.096 17.548 121.592 18.036C122.088 18.516 122.336 19.212 122.336 20.124V24H121.256V20.28C121.256 19.624 121.092 19.124 120.764 18.78C120.436 18.428 119.988 18.252 119.42 18.252C118.844 18.252 118.384 18.432 118.04 18.792C117.704 19.152 117.536 19.676 117.536 20.364V24H116.444V17.424H117.536V18.36C117.752 18.024 118.044 17.764 118.412 17.58C118.788 17.396 119.2 17.304 119.648 17.304ZM128.651 18.324V22.2C128.651 22.52 128.719 22.748 128.855 22.884C128.991 23.012 129.227 23.076 129.563 23.076H130.367V24H129.383C128.775 24 128.319 23.86 128.015 23.58C127.711 23.3 127.559 22.84 127.559 22.2V18.324H126.707V17.424H127.559V15.768H128.651V17.424H130.367V18.324H128.651ZM134.954 17.304C135.45 17.304 135.898 17.412 136.298 17.628C136.698 17.836 137.01 18.152 137.234 18.576C137.466 19 137.582 19.516 137.582 20.124V24H136.502V20.28C136.502 19.624 136.338 19.124 136.01 18.78C135.682 18.428 135.234 18.252 134.666 18.252C134.09 18.252 133.63 18.432 133.286 18.792C132.95 19.152 132.782 19.676 132.782 20.364V24H131.69V15.12H132.782V18.36C132.998 18.024 133.294 17.764 133.67 17.58C134.054 17.396 134.482 17.304 134.954 17.304ZM145.365 20.46C145.365 20.668 145.353 20.888 145.329 21.12H140.073C140.113 21.768 140.333 22.276 140.733 22.644C141.141 23.004 141.633 23.184 142.209 23.184C142.681 23.184 143.073 23.076 143.385 22.86C143.705 22.636 143.929 22.34 144.057 21.972H145.233C145.057 22.604 144.705 23.12 144.177 23.52C143.649 23.912 142.993 24.108 142.209 24.108C141.585 24.108 141.025 23.968 140.529 23.688C140.041 23.408 139.657 23.012 139.377 22.5C139.097 21.98 138.957 21.38 138.957 20.7C138.957 20.02 139.093 19.424 139.365 18.912C139.637 18.4 140.017 18.008 140.505 17.736C141.001 17.456 141.569 17.316 142.209 17.316C142.833 17.316 143.385 17.452 143.865 17.724C144.345 17.996 144.713 18.372 144.969 18.852C145.233 19.324 145.365 19.86 145.365 20.46ZM144.237 20.232C144.237 19.816 144.145 19.46 143.961 19.164C143.777 18.86 143.525 18.632 143.205 18.48C142.893 18.32 142.545 18.24 142.161 18.24C141.609 18.24 141.137 18.416 140.745 18.768C140.361 19.12 140.141 19.608 140.085 20.232H144.237Z" fill="black"/>
<path d="M53.3921 44.52H48.1521L47.3121 47H43.7321L48.8121 32.96H52.7721L57.8521 47H54.2321L53.3921 44.52ZM52.5121 41.88L50.7721 36.74L49.0521 41.88H52.5121ZM62.8182 37.42C63.1515 36.9 63.6115 36.48 64.1982 36.16C64.7849 35.84 65.4715 35.68 66.2582 35.68C67.1782 35.68 68.0115 35.9133 68.7582 36.38C69.5049 36.8467 70.0915 37.5133 70.5182 38.38C70.9582 39.2467 71.1782 40.2533 71.1782 41.4C71.1782 42.5467 70.9582 43.56 70.5182 44.44C70.0915 45.3067 69.5049 45.98 68.7582 46.46C68.0115 46.9267 67.1782 47.16 66.2582 47.16C65.4849 47.16 64.7982 47 64.1982 46.68C63.6115 46.36 63.1515 45.9467 62.8182 45.44V52.32H59.3982V35.84H62.8182V37.42ZM67.6982 41.4C67.6982 40.5467 67.4582 39.88 66.9782 39.4C66.5115 38.9067 65.9315 38.66 65.2382 38.66C64.5582 38.66 63.9782 38.9067 63.4982 39.4C63.0315 39.8933 62.7982 40.5667 62.7982 41.42C62.7982 42.2733 63.0315 42.9467 63.4982 43.44C63.9782 43.9333 64.5582 44.18 65.2382 44.18C65.9182 44.18 66.4982 43.9333 66.9782 43.44C67.4582 42.9333 67.6982 42.2533 67.6982 41.4ZM76.3924 37.42C76.7258 36.9 77.1858 36.48 77.7724 36.16C78.3591 35.84 79.0458 35.68 79.8324 35.68C80.7524 35.68 81.5858 35.9133 82.3324 36.38C83.0791 36.8467 83.6658 37.5133 84.0924 38.38C84.5324 39.2467 84.7524 40.2533 84.7524 41.4C84.7524 42.5467 84.5324 43.56 84.0924 44.44C83.6658 45.3067 83.0791 45.98 82.3324 46.46C81.5858 46.9267 80.7524 47.16 79.8324 47.16C79.0591 47.16 78.3724 47 77.7724 46.68C77.1858 46.36 76.7258 45.9467 76.3924 45.44V52.32H72.9724V35.84H76.3924V37.42ZM81.2724 41.4C81.2724 40.5467 81.0324 39.88 80.5524 39.4C80.0858 38.9067 79.5058 38.66 78.8124 38.66C78.1324 38.66 77.5524 38.9067 77.0724 39.4C76.6058 39.8933 76.3724 40.5667 76.3724 41.42C76.3724 42.2733 76.6058 42.9467 77.0724 43.44C77.5524 43.9333 78.1324 44.18 78.8124 44.18C79.4924 44.18 80.0724 43.9333 80.5524 43.44C81.0324 42.9333 81.2724 42.2533 81.2724 41.4ZM95.8649 47.14C94.8383 47.14 93.9183 46.9733 93.1049 46.64C92.2916 46.3067 91.6383 45.8133 91.1449 45.16C90.6649 44.5067 90.4116 43.72 90.3849 42.8H94.0249C94.0783 43.32 94.2583 43.72 94.5649 44C94.8716 44.2667 95.2716 44.4 95.7649 44.4C96.2716 44.4 96.6716 44.2867 96.9649 44.06C97.2583 43.82 97.4049 43.4933 97.4049 43.08C97.4049 42.7333 97.2849 42.4467 97.0449 42.22C96.8183 41.9933 96.5316 41.8067 96.1849 41.66C95.8516 41.5133 95.3716 41.3467 94.7449 41.16C93.8383 40.88 93.0983 40.6 92.5249 40.32C91.9516 40.04 91.4583 39.6267 91.0449 39.08C90.6316 38.5333 90.4249 37.82 90.4249 36.94C90.4249 35.6333 90.8983 34.6133 91.8449 33.88C92.7916 33.1333 94.0249 32.76 95.5449 32.76C97.0916 32.76 98.3383 33.1333 99.2849 33.88C100.232 34.6133 100.738 35.64 100.805 36.96H97.1049C97.0783 36.5067 96.9116 36.1533 96.6049 35.9C96.2983 35.6333 95.9049 35.5 95.4249 35.5C95.0116 35.5 94.6783 35.6133 94.4249 35.84C94.1716 36.0533 94.0449 36.3667 94.0449 36.78C94.0449 37.2333 94.2583 37.5867 94.6849 37.84C95.1116 38.0933 95.7783 38.3667 96.6849 38.66C97.5916 38.9667 98.3249 39.26 98.8849 39.54C99.4583 39.82 99.9516 40.2267 100.365 40.76C100.778 41.2933 100.985 41.98 100.985 42.82C100.985 43.62 100.778 44.3467 100.365 45C99.9649 45.6533 99.3783 46.1733 98.6049 46.56C97.8316 46.9467 96.9183 47.14 95.8649 47.14ZM109.31 44.1V47H107.57C106.33 47 105.363 46.7 104.67 46.1C103.976 45.4867 103.63 44.4933 103.63 43.12V38.68H102.27V35.84H103.63V33.12H107.05V35.84H109.29V38.68H107.05V43.16C107.05 43.4933 107.13 43.7333 107.29 43.88C107.45 44.0267 107.716 44.1 108.09 44.1H109.31ZM116.295 47.16C115.201 47.16 114.215 46.9267 113.335 46.46C112.468 45.9933 111.781 45.3267 111.275 44.46C110.781 43.5933 110.535 42.58 110.535 41.42C110.535 40.2733 110.788 39.2667 111.295 38.4C111.801 37.52 112.495 36.8467 113.375 36.38C114.255 35.9133 115.241 35.68 116.335 35.68C117.428 35.68 118.415 35.9133 119.295 36.38C120.175 36.8467 120.868 37.52 121.375 38.4C121.881 39.2667 122.135 40.2733 122.135 41.42C122.135 42.5667 121.875 43.58 121.355 44.46C120.848 45.3267 120.148 45.9933 119.255 46.46C118.375 46.9267 117.388 47.16 116.295 47.16ZM116.295 44.2C116.948 44.2 117.501 43.96 117.955 43.48C118.421 43 118.655 42.3133 118.655 41.42C118.655 40.5267 118.428 39.84 117.975 39.36C117.535 38.88 116.988 38.64 116.335 38.64C115.668 38.64 115.115 38.88 114.675 39.36C114.235 39.8267 114.015 40.5133 114.015 41.42C114.015 42.3133 114.228 43 114.655 43.48C115.095 43.96 115.641 44.2 116.295 44.2ZM127.369 37.7C127.769 37.0867 128.269 36.6067 128.869 36.26C129.469 35.9 130.136 35.72 130.869 35.72V39.34H129.929C129.076 39.34 128.436 39.5267 128.009 39.9C127.582 40.26 127.369 40.9 127.369 41.82V47H123.949V35.84H127.369V37.7ZM143.024 41.24C143.024 41.56 143.004 41.8933 142.964 42.24H135.224C135.277 42.9333 135.497 43.4667 135.884 43.84C136.284 44.2 136.77 44.38 137.344 44.38C138.197 44.38 138.79 44.02 139.124 43.3H142.764C142.577 44.0333 142.237 44.6933 141.744 45.28C141.264 45.8667 140.657 46.3267 139.924 46.66C139.19 46.9933 138.37 47.16 137.464 47.16C136.37 47.16 135.397 46.9267 134.544 46.46C133.69 45.9933 133.024 45.3267 132.544 44.46C132.064 43.5933 131.824 42.58 131.824 41.42C131.824 40.26 132.057 39.2467 132.524 38.38C133.004 37.5133 133.67 36.8467 134.524 36.38C135.377 35.9133 136.357 35.68 137.464 35.68C138.544 35.68 139.504 35.9067 140.344 36.36C141.184 36.8133 141.837 37.46 142.304 38.3C142.784 39.14 143.024 40.12 143.024 41.24ZM139.524 40.34C139.524 39.7533 139.324 39.2867 138.924 38.94C138.524 38.5933 138.024 38.42 137.424 38.42C136.85 38.42 136.364 38.5867 135.964 38.92C135.577 39.2533 135.337 39.7267 135.244 40.34H139.524Z" fill="black"/>
</svg>
