<svg width="134" height="23" viewBox="0 0 134 23" fill="none" xmlns="http://www.w3.org/2000/svg">
<path d="M10.4101 22.3174L0.720097 22.3406C0.460098 22.3412 0.329811 22.2215 0.329237 21.9815L0.325576 20.4515C0.325001 20.2115 0.454714 20.0912 0.714713 20.0906L2.99471 20.0851L2.95393 3.0452L0.673937 3.05065C0.413938 3.05128 0.283651 2.93159 0.283077 2.69159L0.279416 1.16159C0.278841 0.921592 0.408554 0.801281 0.668553 0.800659L10.3285 0.777543C12.3285 0.772757 13.8798 1.29905 14.9823 2.35641C16.1049 3.41373 16.6682 4.80238 16.6723 6.52238C16.6771 8.54237 15.7907 10.0545 14.0131 11.0588C16.5749 11.7926 17.859 13.4896 17.8653 16.1496C17.8698 18.0295 17.2434 19.5311 15.9861 20.6541C14.7487 21.757 12.8901 22.3115 10.4101 22.3174ZM5.6047 20.0789L10.1947 20.0679C11.7747 20.0641 13.0039 19.7312 13.8823 19.0691C14.7807 18.3869 15.2282 17.3459 15.2248 15.9459C15.2189 13.4459 13.5959 12.1998 10.3559 12.2075L5.58589 12.2189L5.6047 20.0789ZM5.58115 10.2389L10.1711 10.2279C11.2111 10.2055 12.1104 9.90331 12.869 9.32149C13.6476 8.73962 14.0354 7.82869 14.0324 6.5887C14.0295 5.3487 13.6173 4.44968 12.796 3.89165C11.9946 3.31356 11.0039 3.02593 9.82391 3.02876L5.56392 3.03895L5.58115 10.2389ZM26.5699 22.2787L20.84 22.2925C20.58 22.2931 20.4497 22.1734 20.4491 21.9334L20.446 20.6434C20.4454 20.4034 20.5752 20.2831 20.8352 20.2825L22.4851 20.2785L22.4594 9.53854L20.8095 9.54249C20.5495 9.54311 20.4192 9.42342 20.4186 9.18342L20.4155 7.89343C20.4149 7.65343 20.5446 7.53312 20.8046 7.53249L24.3146 7.5241C24.5746 7.52347 24.7049 7.64316 24.7055 7.88316L24.7145 11.6332L24.8045 11.6329C24.8637 11.3128 25.0726 10.8723 25.4313 10.3114C25.79 9.75057 26.1789 9.28964 26.598 8.92864C27.0371 8.54758 27.6563 8.2061 28.4556 7.90419C29.2748 7.60223 30.1945 7.45002 31.2145 7.44758C31.4745 7.44696 31.6048 7.57665 31.6054 7.83665L31.6092 9.42664C31.6098 9.68664 31.4801 9.81696 31.2201 9.81758L30.5901 9.81908C28.8701 9.8232 27.5015 10.3765 26.4841 11.4789C25.4667 12.5814 24.9597 13.8326 24.9631 15.2326L24.9751 20.2726L26.5651 20.2687C26.8251 20.2681 26.9554 20.3878 26.956 20.6278L26.9591 21.9178C26.9597 22.1578 26.8299 22.2781 26.5699 22.2787ZM39.1969 22.2485L33.4669 22.2622C33.2069 22.2629 33.0766 22.1432 33.076 21.9032L33.0729 20.6132C33.0724 20.3732 33.2021 20.2529 33.4621 20.2522L35.1121 20.2483L35.0864 9.50832L33.4364 9.51227C33.1764 9.5129 33.0461 9.39321 33.0455 9.15321L33.0424 7.86321C33.0418 7.62321 33.1716 7.5029 33.4316 7.50228L37.2115 7.49323C37.4515 7.49266 37.5718 7.61237 37.5724 7.85237L37.6021 20.2423L39.1921 20.2385C39.4521 20.2379 39.5823 20.3576 39.5829 20.5976L39.586 21.8876C39.5866 22.1276 39.4569 22.2479 39.1969 22.2485ZM37.4409 3.05267C37.7817 3.39186 37.9527 3.79145 37.9538 4.25145C37.9549 4.71145 37.7858 5.10185 37.4466 5.42266C37.1274 5.74343 36.7377 5.90436 36.2777 5.90546C35.8177 5.90656 35.4174 5.74752 35.0766 5.42834C34.7558 5.1091 34.5949 4.71949 34.5938 4.25949C34.5927 3.79949 34.7517 3.39911 35.0709 3.05834C35.4101 2.71753 35.8097 2.54657 36.2697 2.54547C36.7297 2.54437 37.1201 2.71344 37.4409 3.05267ZM54.8474 15.1311L44.0474 15.1569C44.1314 16.8167 44.6544 18.0955 45.6166 18.9932C46.5987 19.8908 47.6998 20.3382 48.9198 20.3353C50.1398 20.3323 51.1792 20.0698 52.0379 19.5478C52.9167 19.0257 53.5055 18.5143 53.8043 18.0136C53.9638 17.8132 54.1437 17.7827 54.3441 17.9223L55.156 18.7303C55.2763 18.85 55.3365 18.9599 55.3368 19.0599C55.337 19.1399 55.2872 19.25 55.1876 19.3903C55.1079 19.5304 54.9284 19.7509 54.6491 20.0515C54.3699 20.3522 53.9707 20.6932 53.4516 21.0744C52.9525 21.4556 52.2933 21.7772 51.4739 22.0391C50.6745 22.3011 49.8148 22.4331 48.8948 22.4353C46.7948 22.4403 45.0332 21.7546 43.6099 20.378C42.2066 19.0013 41.5022 17.153 41.4966 14.833C41.491 12.493 42.1866 10.6513 43.5834 9.30799C44.9802 7.94465 46.6885 7.26056 48.7085 7.25572C50.7485 7.25084 52.3501 7.90701 53.5132 9.22423C54.6763 10.5214 55.2606 12.2801 55.2659 14.5001C55.2661 14.5801 55.2662 14.6601 55.2664 14.7401C55.2671 15 55.1274 15.1304 54.8474 15.1311ZM52.773 13.306C52.71 12.0662 52.3177 11.0771 51.5959 10.3388C50.8741 9.60055 49.9132 9.23284 48.7133 9.23572C47.5133 9.23859 46.4841 9.58105 45.6257 10.2631C44.7673 10.9452 44.2598 11.9664 44.103 13.3268L52.773 13.306ZM63.6011 22.1901L57.8711 22.2038C57.6111 22.2045 57.4808 22.0848 57.4802 21.8448L57.4772 20.5548C57.4766 20.3148 57.6063 20.1945 57.8663 20.1938L59.5163 20.1899L59.4744 2.66995L57.8244 2.67389C57.5644 2.67452 57.4341 2.55483 57.4335 2.31483L57.4304 1.02483C57.4298 0.784832 57.5596 0.664521 57.8196 0.663899L61.1496 0.655931C61.6896 0.654638 61.9601 0.903992 61.9613 1.40399L62.0063 20.1839L63.5963 20.1801C63.8563 20.1795 63.9866 20.2992 63.9871 20.5392L63.9902 21.8292C63.9908 22.0692 63.8611 22.1895 63.6011 22.1901ZM79.4701 22.1522L72.4801 22.1689C72.2201 22.1695 72.0898 22.0398 72.0892 21.7798L72.0857 20.3098C72.0851 20.0498 72.2147 19.9195 72.4747 19.9189L74.7547 19.9134L74.714 2.87348L69.044 2.88705L69.0516 6.06704C69.0523 6.34704 68.9126 6.48737 68.6326 6.48804L66.9526 6.49206C66.6726 6.49273 66.5323 6.35307 66.5316 6.07307L66.5195 1.03308C66.5189 0.773082 66.6586 0.642748 66.9386 0.642078L85.0285 0.598789C85.3085 0.598119 85.4489 0.727784 85.4495 0.987784L85.4615 6.02777C85.4622 6.30777 85.3225 6.4481 85.0425 6.44877L83.3326 6.45287C83.0726 6.45349 82.9422 6.3138 82.9415 6.0338L82.9339 2.85381L77.324 2.86723L77.3647 19.9072L79.4647 19.9022C79.7447 19.9015 79.885 20.0312 79.8857 20.2912L79.8892 21.7611C79.8898 22.0211 79.7501 22.1515 79.4701 22.1522ZM97.943 15.0279L87.143 15.0538C87.227 16.7136 87.75 17.9923 88.7122 18.89C89.6943 19.7877 90.7954 20.235 92.0154 20.2321C93.2354 20.2292 94.2748 19.9667 95.1335 19.4447C96.0123 18.9226 96.601 18.4111 96.8999 17.9104C97.0594 17.7101 97.2393 17.6796 97.4396 17.8191L98.2516 18.6272C98.3719 18.7469 98.4321 18.8568 98.4324 18.9568C98.4325 19.0368 98.3828 19.1469 98.2831 19.2871C98.2035 19.4273 98.024 19.6477 97.7447 19.9484C97.4654 20.2491 97.0663 20.59 96.5472 20.9713C96.0481 21.3525 95.3889 21.6741 94.5695 21.936C93.7701 22.1979 92.9104 22.33 91.9904 22.3322C89.8904 22.3372 88.1288 21.6514 86.7055 20.2748C85.3022 18.8982 84.5978 17.0499 84.5922 14.7299C84.5866 12.3899 85.2822 10.5482 86.679 9.20487C88.0757 7.84152 89.7841 7.15743 91.8041 7.1526C93.8441 7.14771 95.4457 7.80388 96.6088 9.1211C97.7719 10.4183 98.3561 12.1769 98.3614 14.3969C98.3616 14.4769 98.3618 14.5569 98.362 14.6369C98.3626 14.8969 98.223 15.0273 97.943 15.0279ZM95.8686 13.2029C95.8056 11.963 95.4132 10.974 94.6915 10.2357C93.9697 9.49742 93.0088 9.12972 91.8088 9.13259C90.6088 9.13546 89.5797 9.47793 88.7213 10.16C87.8629 10.842 87.3554 11.8633 87.1986 13.2236L95.8686 13.2029ZM114.424 18.5885C114.544 18.6882 114.605 18.7881 114.605 18.8881C114.605 18.9681 114.555 19.0882 114.456 19.2484C114.376 19.3886 114.187 19.6091 113.887 19.9098C113.608 20.2105 113.209 20.5514 112.69 20.9327C112.191 21.3139 111.531 21.6354 110.712 21.8974C109.913 22.1593 109.053 22.2914 108.133 22.2936C106.033 22.2986 104.271 21.6128 102.848 20.2362C101.445 18.8596 100.74 17.0112 100.735 14.6912C100.729 12.3513 101.425 10.5096 102.822 9.16624C104.238 7.80284 105.967 7.11871 108.007 7.11382C110.047 7.10894 111.588 7.84526 112.632 9.32276L112.662 9.32269L112.628 7.67277C112.627 7.41277 112.757 7.28246 113.017 7.28183L114.157 7.27911C114.397 7.27853 114.517 7.40824 114.518 7.66824L114.53 12.7682C114.531 13.0082 114.411 13.1285 114.171 13.1291L112.791 13.1324C112.551 13.133 112.431 13.0133 112.43 12.7733L112.429 12.2633C112.407 11.5433 111.996 10.8543 111.194 10.1962C110.392 9.53812 109.372 9.21056 108.132 9.21353C106.912 9.21645 105.793 9.70913 104.775 10.6916C103.758 11.674 103.251 13.0152 103.255 14.7152C103.259 16.3952 103.762 17.734 104.764 18.7316C105.767 19.7092 106.888 20.1965 108.128 20.1936C109.368 20.1906 110.417 19.9281 111.276 19.406C112.155 18.8639 112.744 18.3425 113.042 17.8418C113.182 17.6015 113.352 17.5711 113.552 17.7506L114.424 18.5885ZM132.796 22.0245L129.946 22.0314C129.086 22.0334 128.655 21.6145 128.653 20.7745L128.634 12.8845C128.632 11.7245 128.35 10.8252 127.788 10.1865C127.226 9.54784 126.406 9.2298 125.326 9.23239C124.506 9.23435 123.876 9.36586 123.437 9.62691C123.017 9.86791 122.698 10.0887 122.478 10.2892C122.259 10.4697 122.079 10.6502 121.94 10.8305C121.7 11.1511 121.501 11.4815 121.342 11.8219L121.362 20.0419L122.952 20.0381C123.212 20.0375 123.342 20.1572 123.342 20.3972L123.346 21.6872C123.346 21.9272 123.216 22.0475 122.956 22.0481L117.226 22.0618C116.966 22.0624 116.836 21.9427 116.836 21.7027L116.832 20.4127C116.832 20.1727 116.962 20.0524 117.222 20.0518L118.872 20.0479L118.83 2.52791L117.18 2.53186C116.92 2.53248 116.789 2.41279 116.789 2.17279L116.786 0.882798C116.785 0.642798 116.915 0.522487 117.175 0.521865L120.955 0.51282C121.195 0.512245 121.315 0.631958 121.316 0.871958L121.332 7.56194C121.333 8.22194 121.295 8.83203 121.216 9.39222L121.276 9.39208C122.252 7.84974 123.811 7.07601 125.951 7.07089C127.551 7.06706 128.802 7.53406 129.704 8.47191C130.606 9.40975 131.069 10.6786 131.093 12.2786L131.112 20.0186L132.792 20.0146C133.052 20.0139 133.182 20.1336 133.182 20.3736L133.185 21.6636C133.186 21.9036 133.056 22.0239 132.796 22.0245Z" fill="black"/>
</svg>
