<svg width="54" height="55" viewBox="0 0 54 55" fill="none" xmlns="http://www.w3.org/2000/svg">
<path d="M25.5 14C18.075 14 12 20.0858 12 27.5813C12 34.3584 16.941 39.9834 23.394 41V31.512H19.965V27.5813H23.394V24.5858C23.394 21.1837 25.4055 19.3133 28.497 19.3133C29.9685 19.3133 31.5075 19.5708 31.5075 19.5708V22.9187H29.8065C28.1325 22.9187 27.606 23.9624 27.606 25.0331V27.5813H31.359L30.7515 31.512H27.606V41C30.7872 40.4956 33.684 38.8659 35.7734 36.4052C37.8628 33.9445 39.0072 30.8149 39 27.5813C39 20.0858 32.925 14 25.5 14Z" fill="white"/>
<path d="M53 27.5C53 42.1529 41.3422 54 27 54C12.6578 54 1 42.1529 1 27.5C1 12.8471 12.6578 1 27 1C41.3422 1 53 12.8471 53 27.5Z" stroke="white" stroke-width="2"/>
</svg>
