<svg width="54" height="55" viewBox="0 0 54 55" fill="none" xmlns="http://www.w3.org/2000/svg">
<path d="M38 16C38.7956 16 39.5587 16.3161 40.1213 16.8787C40.6839 17.4413 41 18.2044 41 19V40C41 40.7956 40.6839 41.5587 40.1213 42.1213C39.5587 42.6839 38.7956 43 38 43H17C16.2044 43 15.4413 42.6839 14.8787 42.1213C14.3161 41.5587 14 40.7956 14 40V19C14 18.2044 14.3161 17.4413 14.8787 16.8787C15.4413 16.3161 16.2044 16 17 16H38ZM37.25 39.25V31.3C37.25 30.0031 36.7348 28.7593 35.8178 27.8422C34.9007 26.9252 33.6569 26.41 32.36 26.41C31.085 26.41 29.6 27.19 28.88 28.36V26.695H24.695V39.25H28.88V31.855C28.88 30.7 29.81 29.755 30.965 29.755C31.522 29.755 32.0561 29.9762 32.4499 30.3701C32.8438 30.7639 33.065 31.298 33.065 31.855V39.25H37.25ZM19.82 24.34C20.4883 24.34 21.1293 24.0745 21.6019 23.6019C22.0745 23.1293 22.34 22.4883 22.34 21.82C22.34 20.425 21.215 19.285 19.82 19.285C19.1477 19.285 18.5029 19.5521 18.0275 20.0275C17.5521 20.5029 17.285 21.1477 17.285 21.82C17.285 23.215 18.425 24.34 19.82 24.34ZM21.905 39.25V26.695H17.75V39.25H21.905Z" fill="white"/>
<path d="M53 27.5C53 42.1529 41.3422 54 27 54C12.6578 54 1 42.1529 1 27.5C1 12.8471 12.6578 1 27 1C41.3422 1 53 12.8471 53 27.5Z" stroke="white" stroke-width="2"/>
</svg>
