<svg width="79" height="29" viewBox="0 0 79 29" fill="none" xmlns="http://www.w3.org/2000/svg">
<path d="M9.46912 0.00106812H3.33154C2.91146 0.00106812 2.55431 0.421997 2.48878 0.993994L0.00644512 22.6993C-0.0429265 23.1275 0.197642 23.5138 0.512596 23.5138H3.44278C3.86278 23.5138 4.21993 23.093 4.28546 22.5199L4.95495 16.6657C5.0196 16.0925 5.37764 15.6716 5.79675 15.6716H7.73974C11.7827 15.6716 14.1161 12.9735 14.7255 7.62664C15.0001 5.28737 14.7371 3.44944 13.9429 2.16226C13.0706 0.748668 11.5234 0.00106812 9.46912 0.00106812ZM10.1772 7.92869C9.84157 10.966 8.15884 10.966 6.53177 10.966H5.60563L6.25535 5.29365C6.29398 4.95077 6.50932 4.69829 6.76065 4.69829H7.18509C8.29342 4.69829 9.33901 4.69829 9.87923 5.56952C10.2014 6.08944 10.3002 6.86173 10.1772 7.92869Z" fill="black" fill-opacity="0.67"/>
<path d="M27.8154 7.83099H24.8765C24.6261 7.83099 24.4098 8.08349 24.3711 8.42635L24.2411 9.56005L24.0355 9.1491C23.3993 7.87547 21.9804 7.4498 20.5642 7.4498C17.3163 7.4498 14.5423 10.8423 14.0021 15.6012C13.7212 17.9751 14.1206 20.245 15.097 21.8279C15.9926 23.2836 17.2741 23.89 18.7991 23.89C21.416 23.89 22.867 21.5694 22.867 21.5694L22.7361 22.6957C22.6866 23.1265 22.9272 23.5126 23.2404 23.5126H25.8877C26.3087 23.5126 26.6642 23.0917 26.7306 22.5187L28.3189 8.64536C28.3693 8.21834 28.1297 7.83099 27.8154 7.83099ZM23.7187 15.7201C23.4352 18.0357 22.1025 19.5904 20.4027 19.5904C19.5493 19.5904 18.8671 19.2128 18.4292 18.4974C17.9949 17.787 17.8297 16.7758 17.9679 15.6494C18.2326 13.3536 19.5879 11.7483 21.2615 11.7483C22.0962 11.7483 22.7746 12.1307 23.2216 12.8522C23.6695 13.5812 23.847 14.5986 23.7187 15.7201Z" fill="black" fill-opacity="0.67"/>
<path d="M43.4687 7.83096H40.5153C40.2335 7.83096 39.9687 8.02406 39.809 8.34716L35.7354 16.6224L34.0088 8.67015C33.9002 8.17254 33.5674 7.83096 33.1904 7.83096H30.2881C29.9353 7.83096 29.6904 8.3062 29.8026 8.76416L33.0557 21.9308L29.9974 27.8853C29.7567 28.3543 29.999 28.9994 30.4147 28.9994H33.3646C33.6445 28.9994 33.9066 28.8111 34.0653 28.4943L43.8888 8.93878C44.1239 8.47082 43.8825 7.83096 43.4687 7.83096Z" fill="black" fill-opacity="0.67"/>
<path d="M53.2473 0.00106812H47.1088C46.6897 0.00106812 46.3326 0.421997 46.267 0.993994L43.7847 22.6993C43.7353 23.1275 43.9758 23.5138 44.2891 23.5138H47.4391C47.7316 23.5138 47.9822 23.2193 48.0278 22.8182L48.7322 16.6657C48.7969 16.0925 49.1551 15.6716 49.574 15.6716H51.5162C55.5601 15.6716 57.8926 12.9735 58.5028 7.62664C58.7783 5.28737 58.5136 3.44944 57.7194 2.16226C56.8479 0.748668 55.3016 0.00106812 53.2473 0.00106812ZM53.9556 7.92869C53.6207 10.966 51.9381 10.966 50.31 10.966H49.3848L50.0355 5.29365C50.074 4.95077 50.2875 4.69829 50.5397 4.69829H50.9642C52.0718 4.69829 53.1181 4.69829 53.6584 5.56952C53.9805 6.08944 54.0784 6.86173 53.9556 7.92869Z" fill="black" fill-opacity="0.67"/>
<path d="M71.593 7.83099H68.6557C68.4035 7.83099 68.1888 8.08349 68.1511 8.42635L68.021 9.56005L67.8147 9.1491C67.1785 7.87547 65.7604 7.4498 64.3443 7.4498C61.0963 7.4498 58.3233 10.8423 57.783 15.6012C57.5031 17.9751 57.9006 20.245 58.877 21.8279C59.7745 23.2836 61.0541 23.89 62.5789 23.89C65.1959 23.89 66.6471 21.5694 66.6471 21.5694L66.5159 22.6957C66.4667 23.1265 66.7071 23.5126 67.0222 23.5126H69.6688C70.0879 23.5126 70.4452 23.0917 70.5106 22.5187L72.1 8.64536C72.1483 8.21834 71.908 7.83099 71.593 7.83099ZM67.4961 15.7201C67.2142 18.0357 65.8797 19.5904 64.1801 19.5904C63.3284 19.5904 62.6445 19.2128 62.2064 18.4974C61.7723 17.787 61.6088 16.7758 61.7453 15.6494C62.0118 13.3536 63.3651 11.7483 65.0389 11.7483C65.8736 11.7483 66.5519 12.1307 66.9989 12.8522C67.4485 13.5812 67.6262 14.5986 67.4961 15.7201Z" fill="black" fill-opacity="0.67"/>
<path d="M75.058 0.596772L72.5388 22.6995C72.4895 23.1277 72.7299 23.514 73.0431 23.514H75.5757C75.9967 23.514 76.3538 23.0933 76.4185 22.5201L78.9026 0.816016C78.9519 0.387599 78.7116 0.000244141 78.3982 0.000244141H75.5622C75.3119 0.00127665 75.0966 0.25409 75.058 0.596772Z" fill="black" fill-opacity="0.67"/>
</svg>
