<svg width="54" height="55" viewBox="0 0 54 55" fill="none" xmlns="http://www.w3.org/2000/svg">
<path d="M53 27.5C53 42.1529 41.3422 54 27 54C12.6578 54 1 42.1529 1 27.5C1 12.8471 12.6578 1 27 1C41.3422 1 53 12.8471 53 27.5Z" stroke="white" stroke-width="2"/>
<path d="M39 19.1765C38.0062 19.7324 36.935 20.0976 35.825 20.2724C36.9608 19.4306 37.8384 18.0965 38.2514 16.4924C37.1802 17.2865 35.9928 17.8424 34.7409 18.16C33.7213 16.7941 32.2887 16 30.6625 16C27.6295 16 25.1515 19.0494 25.1515 22.8135C25.1515 23.3535 25.2032 23.8776 25.2935 24.37C20.6989 24.0841 16.6076 21.3682 13.8843 17.2547C13.4068 18.2553 13.1358 19.4306 13.1358 20.6694C13.1358 23.0359 14.1037 25.1324 15.6009 26.3235C14.6845 26.3235 13.8327 26.0059 13.0841 25.5294C13.0841 25.5294 13.0841 25.5294 13.0841 25.5771C13.0841 28.8806 14.9943 31.6441 17.5239 32.2635C17.0593 32.4224 16.5688 32.5018 16.0655 32.5018C15.717 32.5018 15.3685 32.4541 15.033 32.3747C15.7299 35.0588 17.7562 37.06 20.1955 37.1076C18.3112 38.95 15.9235 40.03 13.3164 40.03C12.8776 40.03 12.4388 39.9982 12 39.9347C14.4522 41.8724 17.369 43 20.4924 43C30.6625 43 36.251 32.6129 36.251 23.6076C36.251 23.3059 36.251 23.02 36.238 22.7182C37.3222 21.7653 38.2514 20.5582 39 19.1765Z" fill="white"/>
</svg>
